<?xml version="1.0" encoding="utf-8"?>
<!-- Generator: Adobe Illustrator 22.1.0, SVG Export Plug-In . SVG Version: 6.00 Build 0)  -->
<svg version="1.1" id="Слой_1" xmlns="http://www.w3.org/2000/svg" xmlns:xlink="http://www.w3.org/1999/xlink" x="0px" y="0px"
	 viewBox="0 0 770.2 230.3" style="enable-background:new 0 0 770.2 230.3;" xml:space="preserve">
<style type="text/css">
	.st0{fill:#FFFFFF;}
	.st1{clip-path:url(#SVGID_2_);fill:#989898;}
	.st2{clip-path:url(#SVGID_2_);fill:#619ED7;}
	.st3{fill:#619ED7;}
	.st4{fill:#070809;}
	.st5{fill:#666666;}
	.st6{clip-path:url(#SVGID_4_);fill:#FFFFFF;}
	.st7{clip-path:url(#SVGID_4_);fill:#070809;}
	.st8{clip-path:url(#SVGID_4_);fill:#989898;}
	.st9{clip-path:url(#SVGID_4_);fill:#619ED7;}
</style>
<g>
	<defs>
		<rect id="SVGID_1_" x="-654.9" y="-1812.9" width="2080" height="3003"/>
	</defs>
	<clipPath id="SVGID_2_">
		<use xlink:href="#SVGID_1_"  style="overflow:visible;"/>
	</clipPath>
	<polygon class="st1" points="187.8,83.2 187.8,95.4 233.4,95.4 233.4,134.9 187.8,134.9 187.8,147.1 248.6,147.1 248.6,189.7 
		139.1,189.7 139.1,168.4 144.8,160.7 146.3,158.6 151.7,151.2 160.7,139.1 175.2,119.3 178.2,115.2 175.2,111 160.7,91.2 
		151.8,79.1 146.3,71.7 144.8,69.6 139.1,61.9 139.1,40.7 248.6,40.7 248.6,83.2 	"/>
	<polygon class="st2" points="169.5,115.1 155,134.9 146.1,147.1 140.7,154.5 139.1,156.5 114.8,189.6 57,189.6 111.8,115.1 
		57,40.6 114.8,40.6 139.1,73.8 140.7,75.8 146.1,83.2 155,95.4 	"/>
	<polygon class="st1" points="362.8,71.6 340.8,41.3 340.8,41.3 340.8,41.3 340.9,41.3 	"/>
	<path class="st1" d="M452.1,41.3h-15.6l-26.8,67H425l5.5-14h27.4l5.5,14h15.3L452.1,41.3z M434.4,82.3l9.8-26.3l9.8,26.3H434.4z
		 M550.7,108.2h15v-67h-15V108.2z"/>
	<polygon class="st1" points="387.4,133.1 387.4,120.6 339.5,120.6 339.5,189.6 387.4,189.6 387.4,177.1 354.5,177.1 354.5,161.2 
		378.7,161.2 378.7,149.1 354.5,149.1 354.5,133.1 	"/>
	<path class="st1" d="M362.8,71.6l-21.9-30.3h-0.1l24.1,33.2l0,0L362.8,71.6z M357.6,40.7L357.6,40.7l0.4,0.6l15.5,21.4l0,0
		L357.6,40.7z"/>
	<polygon class="st2" points="406.5,108.2 431.7,143.1 448.2,120.6 465.3,120.6 440.3,154.9 465.6,189.6 448.4,189.6 431.7,166.7 
		415.1,189.6 397.9,189.6 423.2,154.9 373.5,86.3 357.5,108.2 340.3,108.2 364.9,74.5 364.9,74.5 362.8,71.6 340.9,41.3 340.8,41.3 
		358,41.3 373.5,62.7 373.5,62.7 389.1,41.3 406.3,41.3 382.1,74.5 	"/>
	<path class="st1" d="M523.2,126.8c-4.7-4.1-10.9-6.2-18.8-6.2h-29.1v69.1h15v-22.4h14c7.9,0,14.2-2,18.8-6c4.6-4,7-9.8,7-17.3
		C530.2,136.6,527.8,130.9,523.2,126.8 M502.2,154.7h-11.9v-21.5h11.9c3.9,0,7.1,0.8,9.3,2.4c2.3,1.6,3.4,4.4,3.4,8.4
		C515,151.1,510.7,154.7,502.2,154.7"/>
	<polygon class="st1" points="586.4,133.1 586.4,120.6 538.5,120.6 538.5,189.6 586.4,189.6 586.4,177.1 553.5,177.1 553.5,161.2 
		577.7,161.2 577.7,149.1 553.5,149.1 553.5,133.1 	"/>
	<path class="st1" d="M647.8,156.5c2.4-3.6,3.6-7.9,3.6-13.1c0-7.4-2.2-13-6.6-16.9c-4.4-3.9-10.5-5.9-18.3-5.9h-29.9v69.1h15v-23.4
		h11.8l12.2,23.4h15.4l-13.1-25.3C642.1,162.7,645.4,160.1,647.8,156.5 M632.8,151.2c-2.2,1.6-5.2,2.5-9,2.5h-12.3v-20.6h12.3
		c3.9,0,6.9,0.8,9.1,2.3c2.2,1.6,3.3,4.2,3.3,8C636.2,147,635,149.6,632.8,151.2"/>
	<polygon class="st1" points="658.3,120.6 658.3,133.1 678.4,133.1 678.4,189.6 693.5,189.6 693.5,133.1 713.6,133.1 713.6,120.6 	
		"/>
	<path class="st1" d="M633.9,56.6c-3-5.1-7.2-9-12.7-11.7c-3.6-1.8-7.5-3-11.9-3.6h-31v66.9h32.9c7-1.2,12.8-3.9,17.4-7.9
		c6.6-5.8,9.8-14.4,9.8-25.7C638.3,67.7,636.8,61.7,633.9,56.6 M617.7,90.8c-3.7,3.9-9,5.9-15.9,5.9H593V53.2h9.8
		c4.2,0,7.9,0.9,11,2.7c3.1,1.8,5.5,4.4,7.1,7.6c1.6,3.3,2.4,6.9,2.4,11.1C623.3,81.5,621.4,86.9,617.7,90.8"/>
	<path class="st1" d="M536.1,75.8c2.3-3.5,3.5-7.8,3.5-12.8c0-7.2-2.2-12.7-6.4-16.6c-4.3-3.8-10.3-5.8-17.9-5.8h-29.3v67.6h14.7
		V85.3h11.5l11.9,22.9h15.1l-12.9-24.8C530.5,81.9,533.8,79.3,536.1,75.8 M521.4,70.6c-2.2,1.6-5.1,2.4-8.9,2.4h-12V52.9h12
		c3.8,0,6.8,0.8,8.9,2.3c2.1,1.5,3.2,4.1,3.2,7.8C524.7,66.5,523.6,69,521.4,70.6"/>
	<rect x="292" y="40.7" class="st1" width="3.1" height="149"/>
</g>
</svg>
